<?xml version="1.0" encoding="utf-8"?>
<!-- Generator: Adobe Illustrator 16.0.0, SVG Export Plug-In . SVG Version: 6.00 Build 0)  -->
<!DOCTYPE svg PUBLIC "-//W3C//DTD SVG 1.1//EN" "http://www.w3.org/Graphics/SVG/1.1/DTD/svg11.dtd">
<svg version="1.1" xmlns="http://www.w3.org/2000/svg" xmlns:xlink="http://www.w3.org/1999/xlink" x="0px" y="0px" width="1280px"
	 height="800px" viewBox="0 0 1280 800" enable-background="new 0 0 1280 800" xml:space="preserve">
<g id="Layer_1" display="none">
	<ellipse display="inline" fill="#FFFFFF" stroke="#000000" stroke-miterlimit="10" cx="640" cy="400" rx="610.586" ry="383.379"/>
</g>
<g id="Layer_2">
	<g>
		<g>
			<polygon fill="#C28C29" points="638.076,671 167.455,671 389.465,543 860.086,543 			"/>
			<g>
				<path fill="#C28C29" d="M638.076,666.135c-30.635,0-61.27,0-91.905,0c-63.375,0-126.749,0-190.123,0
					c-53.317,0-106.634,0-159.952,0c-9.547,0-19.094,0-28.641,0c0.841,3.105,1.683,6.212,2.523,9.317
					c39.163-22.611,78.326-45.222,117.489-67.833c25.612-14.787,51.223-29.574,76.835-44.361c7.505-4.333,15.01-8.666,22.516-12.999
					c1.576-0.91,3.152-1.82,4.729-2.73c1.684-0.973-3.718,0.428-1.368,0.428c34.829,0,69.658,0,104.487,0
					c64.145,0,128.289,0,192.434,0c50.664,0,101.327,0,151.991,0c6.998,0,13.996,0,20.994,0c-0.841-3.105-1.683-6.212-2.523-9.317
					c-39.163,22.611-78.326,45.222-117.489,67.833c-34.84,20.115-69.681,40.23-104.521,60.346
					c-5.582,3.223-0.548,11.865,5.047,8.635c39.163-22.611,78.326-45.222,117.489-67.833c34.84-20.115,69.681-40.23,104.521-60.346
					c4.321-2.495,2.438-9.317-2.523-9.317c-30.635,0-61.271,0-91.905,0c-63.374,0-126.748,0-190.123,0
					c-53.317,0-106.634,0-159.952,0c-9.513,0-19.026,0-28.54,0c-3.278,0-7.317,3.392-9.975,4.926
					c-8.208,4.739-16.416,9.478-24.623,14.217c-52.478,30.298-104.955,60.597-157.433,90.895
					c-10.868,6.274-21.736,12.55-32.604,18.824c-4.322,2.495-2.438,9.317,2.523,9.317c30.635,0,61.27,0,91.905,0
					c63.375,0,126.749,0,190.123,0c53.317,0,106.634,0,159.952,0c9.547,0,19.094,0,28.641,0
					C644.524,676.135,644.524,666.135,638.076,666.135z"/>
			</g>
		</g>
		<g>
			<g>
				<path fill="#C28C29" d="M162.023,671.611c0,31.885,0,63.771,0,95.655c0,6.448,10,6.448,10,0c0-31.885,0-63.771,0-95.655
					C172.023,665.163,162.023,665.163,162.023,671.611L162.023,671.611z"/>
			</g>
		</g>
		<g>
			<g>
				<path fill="#C28C29" d="M633.602,671.611c0,31.885,0,63.771,0,95.655c0,6.448,10,6.448,10,0c0-31.885,0-63.771,0-95.655
					C643.602,665.163,633.602,665.163,633.602,671.611L633.602,671.611z"/>
			</g>
		</g>
		<g>
			<g>
				<path fill="#C28C29" d="M855.519,544.393c0,31.884,0,63.769,0,95.652c0,6.448,10,6.448,10,0c0-31.884,0-63.769,0-95.652
					C865.519,537.944,855.519,537.944,855.519,544.393L855.519,544.393z"/>
			</g>
		</g>
	</g>
</g>
<g id="Layer_3">
	<g>
		<g>
			<g>
				<path fill="#C28C29" d="M857.227,767.228c69.146-65.4,88.918-172.754,72.097-263.464
					c-8.724-47.045-29.119-92.573-55.501-132.292c-26.977-40.615-62.192-76.26-104.392-100.995
					c-45.235-26.514-98.099-37.844-150.245-32.98c-55.152,5.144-106.729,27.093-157.076,48.778
					c-26.496,11.412-52.964,23.3-80.415,32.269c-28.534,9.323-58.232,14.688-88.232,15.735
					c-59.646,2.081-118.014-14.438-171.707-39.409c-3.441-1.601-6.858-3.252-10.268-4.919c-5.769-2.821-10.84,5.802-5.047,8.635
					c53.156,25.991,110.243,44.237,169.772,45.77c29.204,0.752,58.471-2.884,86.778-9.996c28.487-7.157,55.631-18.68,82.583-30.171
					c50.95-21.724,101.863-45.471,156.949-54.541c52.757-8.686,107.123-0.007,154.275,25.214
					c43.323,23.174,79.21,58.82,106.732,99.196c27.008,39.62,47.171,85.163,56.149,132.364c8.542,44.901,6.655,92.104-4.338,136.399
					c-10.908,43.948-32.045,85.988-65.187,117.336C845.463,764.596,852.546,771.655,857.227,767.228L857.227,767.228z"/>
			</g>
		</g>
		<g>
			<g>
				<path fill="#C28C29" d="M213.086,330.739c-28.06,2.777-55.616,8.434-81.055,20.978c-5.784,2.852-0.715,11.476,5.047,8.635
					c23.758-11.714,49.805-17.019,76.008-19.612C219.442,340.11,219.503,330.104,213.086,330.739L213.086,330.739z"/>
			</g>
		</g>
		<g>
			<g>
				<path fill="#C28C29" d="M190.151,374.57c11.175-13.034,23.827-29.099,41.029-34.009c6.19-1.767,3.556-11.417-2.658-9.643
					c-19.08,5.447-33.016,22.087-45.442,36.581C178.907,372.366,185.947,379.473,190.151,374.57L190.151,374.57z"/>
			</g>
		</g>
		<g>
			<g>
				<path fill="#C28C29" d="M181.314,168.976c31.142,39.881,73.079,68.786,116.921,93.126
					c23.284,12.927,47.091,26.026,72.666,33.836c26.197,8,55.833,9.641,82.639,4.032c6.311-1.32,3.633-10.959-2.658-9.643
					c-25.824,5.403-53.899,3.121-79.04-4.557c-25.152-7.682-48.616-21.172-71.475-33.927c-42.138-23.511-82.041-51.598-111.98-89.94
					C184.42,156.826,177.396,163.957,181.314,168.976L181.314,168.976z"/>
			</g>
		</g>
		<g>
			<g>
				<path fill="#C28C29" d="M282.671,69.652c20.829-12.699,46.118-11.008,68.944-5.46c23.833,5.792,46.419,16.233,67.854,27.969
					c25.067,13.724,48.001,29.486,69.747,48.048c21.609,18.445,42.213,37.761,65.247,54.492
					c32.892,23.891,69.886,43.616,109.953,51.93c6.293,1.306,8.971-8.333,2.658-9.643c-56.24-11.67-105.185-45.65-147.443-83.2
					c-21.401-19.017-42.75-37.978-66.747-53.724c-20.903-13.717-43.692-25.477-66.813-34.968
					c-33.235-13.643-75.55-24.136-108.447-4.079C272.128,64.368,277.149,73.019,282.671,69.652L282.671,69.652z"/>
			</g>
		</g>
		<g>
			<g>
				<path fill="#C28C29" d="M622.032,42.939c25.396-11.291,55.511,0.095,78.118,12.794c21.637,12.154,38.738,31.22,52.384,51.647
					c13.905,20.813,24.545,43.703,34.174,66.742c11.357,27.175,20.087,54.962,27.427,83.474
					c3.914,15.202,7.604,30.444,11.094,45.748c3.228,14.157,7.695,27.961,16.425,39.751c3.792,5.121,12.478,0.143,8.635-5.047
					c-8.288-11.192-12.302-23.949-15.417-37.362c-3.409-14.679-6.904-29.319-10.627-43.925
					c-7.304-28.662-16.007-56.605-27.329-83.941c-18.687-45.115-41.735-91.576-82.946-120.189
					c-26.851-18.643-65.407-32.365-96.983-18.326C611.103,36.919,616.195,45.534,622.032,42.939L622.032,42.939z"/>
			</g>
		</g>
		<g>
			<g>
				<path fill="#C28C29" d="M1154.661,464.628c-6.517-38.403-15.21-86.285-52.045-107.556
					c-43.421-25.073-83.688,15.142-105.137,49.794c-28.233,45.613-33.162,98.847-27.343,151.193
					c3.063,27.56,8.828,54.745,15.463,81.642c4.449,18.039,8.913,36.172,14.791,53.811c6.78,20.346,15.298,44.602,32.074,58.988
					c4.866,4.174,11.974-2.866,7.07-7.07c-14.689-12.599-22.164-33.484-28.361-51.233c-5.985-17.142-10.317-34.84-14.753-52.428
					c-13.443-53.309-24.785-109.917-15.166-164.863c4.285-24.475,13.612-47.372,26.928-68.286
					c11.699-18.377,27.027-36.336,47.266-45.437c20.027-9.005,41.689-1.459,56.277,13.707c14.531,15.108,21.559,36.351,26.521,56.25
					c2.809,11.264,4.83,22.708,6.771,34.146C1146.096,473.634,1155.731,470.934,1154.661,464.628L1154.661,464.628z"/>
			</g>
		</g>
		<g>
			<g>
				<path fill="#C28C29" d="M937.789,145.153c15.332-18.05,39.899-19.217,61.426-13.663c23.103,5.96,41.418,20.637,54.934,40.009
					c13.785,19.759,23.332,44.067,25.309,68.161c2.32,28.267-7.646,54.207-22.217,77.917
					c-15.221,24.769-29.957,50.048-48.476,72.556c-4.063,4.938,2.97,12.055,7.07,7.071c19.082-23.191,34.352-49.062,50.04-74.58
					c14.291-23.246,24.161-48.461,23.899-76.085c-0.231-24.463-8.694-49.012-20.699-70.105
					c-11.572-20.334-28.347-38.526-49.851-48.357c-28.033-12.815-66.669-15.703-88.506,10.006
					C926.57,142.965,933.608,150.075,937.789,145.153L937.789,145.153z"/>
			</g>
		</g>
		<g>
			<g>
				<path fill="#C28C29" d="M896.213,78.875c-3.58-19.017-16.551-34.361-34.359-41.636c-17.994-7.352-38.103-2.32-52.044,10.642
					c-17.766,16.517-27.068,38.814-28.579,62.776c-1.499,23.765,4.266,47.649,9.382,70.673c1.398,6.294,11.039,3.625,9.643-2.658
					c-4.548-20.467-9.26-41.101-9.211-62.18c0.05-21.101,6.813-40.848,21.003-56.622c11.891-13.219,27.663-19.446,45.012-13.773
					c15.725,5.142,26.522,19.56,29.512,35.437C887.763,87.866,897.399,85.176,896.213,78.875L896.213,78.875z"/>
			</g>
		</g>
		<g>
			<g>
				<path fill="#C28C29" d="M524.88,56.619c-10.44-4.099-22.218-3.417-31.521,3.116c-9.758,6.853-14.048,18.665-13.192,30.28
					c1.069,14.497,7.235,28.76,14.075,41.383c7.062,13.033,16.148,25.067,26.199,35.934c4.387,4.744,11.442-2.345,7.071-7.071
					c-16.256-17.577-30.121-38.722-35.875-62.189c-2.451-9.998-2.539-20.397,5.073-28.182c6.804-6.959,17.005-6.966,25.511-3.627
					C528.232,68.621,530.812,58.947,524.88,56.619L524.88,56.619z"/>
			</g>
		</g>
		<g>
			<g>
				<path fill="#C28C29" d="M417.321,79.405c-17.568-10.693-37.657-14.295-57.688-9.287c-19.738,4.936-36.81,18.14-49.767,33.419
					c-4.144,4.886,2.895,11.997,7.071,7.071c11.755-13.861,26.321-25.295,43.954-30.467c17.686-5.188,35.852-1.555,51.384,7.898
					C417.798,91.402,422.82,82.751,417.321,79.405L417.321,79.405z"/>
			</g>
		</g>
		<g>
			<g>
				<path fill="#C28C29" d="M345.405,275.942c-13.894-11.304-25.608-26.046-29.853-43.734c-3.823-15.933,4.192-29.761,16.418-39.396
					c5.063-3.99-2.066-11.016-7.071-7.071c-14.609,11.513-22.223,27.609-19.549,46.215c2.905,20.213,17.619,38.557,32.983,51.058
					C343.289,287.045,350.41,280.015,345.405,275.942L345.405,275.942z"/>
			</g>
		</g>
		<g>
			<g>
				<path fill="#C28C29" d="M226.416,201.734c-25.399-20.854-59.62-25.633-90.907-17.279c-6.225,1.662-3.581,11.309,2.658,9.643
					c27.568-7.36,58.637-3.8,81.178,14.708C224.286,212.862,231.404,205.83,226.416,201.734L226.416,201.734z"/>
			</g>
		</g>
	</g>
</g>
</svg>
